# xmcd CD database file
#
# Track frame offsets:
#	150
#	14484
#	27709
#	44776
#	58818
#	77360
#	94041
#	113423
#	128038
#	145418
#	160828
#	199361
#	214975
#
# Disc length: 3255 seconds
#
# Revision: 0
# Processed by: cddbd v1.5.1PL0 Copyright (c) Steve Scherf et al.
# Submitted via: CDex 1.40Beta8
#
DISCID=bc0cb50d
DTITLE=Bastard Sons of Johnny Cash - BSOJC Live
DYEAR=2004
DGENRE=Country
TTITLE0=Texas Sun
TTITLE1=Stop the World
TTITLE2=Distance Between
TTITLE3=Marfa LIghts
TTITLE4=Burn Down
TTITLE5=WInd it Up
TTITLE6=Long Black Veil
TTITLE7=Folsom Prison Blues
TTITLE8=440 Horses
TTITLE9=Nowhere Town
TTITLE10=Midnight Lonesome and Blue
TTITLE11=Blade
TTITLE12=Viva Las Vegas
EXTD=YEAR: 2004 ID3G: 2
EXTT0=
EXTT1=
EXTT2=
EXTT3=
EXTT4=
EXTT5=
EXTT6=
EXTT7=
EXTT8=
EXTT9=
EXTT10=
EXTT11=
EXTT12=
PLAYORDER=
